<svg width="29" height="20" viewBox="0 0 29 20" fill="none" xmlns="http://www.w3.org/2000/svg">
<path d="M25.6567 0.249878H1.80729C1.51358 0.284544 1.26882 0.405878 1.07301 0.613878C0.877201 0.821878 0.779297 1.05588 0.779297 1.31588C0.779297 1.57588 0.877201 1.81421 1.07301 2.03088C1.26882 2.24754 1.51358 2.37321 1.80729 2.40788H6.53605L5.68428 12.0019V12.1839C5.68428 12.7732 5.92415 13.2802 6.40388 13.7049C6.88361 14.1295 7.45635 14.3419 8.12209 14.3419H23.1308C23.7182 14.3419 24.2322 14.1815 24.6728 13.8609C25.1133 13.5402 25.3923 13.1459 25.5098 12.6779L28.0358 2.90188C28.0749 2.69388 28.0945 2.52921 28.0945 2.40788C28.0945 1.80121 27.8595 1.28988 27.3896 0.873878C26.9196 0.457878 26.342 0.249878 25.6567 0.249878ZM23.1308 12.1579H8.12209L8.97386 2.40788H25.6567L23.1308 12.1579ZM10.3837 19.7499C11.069 19.7499 11.6515 19.5375 12.1313 19.1129C12.611 18.6882 12.8509 18.1725 12.8509 17.5659C12.8509 16.9592 12.611 16.4479 12.1313 16.0319C11.6515 15.6159 11.069 15.4079 10.3837 15.4079C9.71793 15.4079 9.14519 15.6159 8.66546 16.0319C8.18573 16.4479 7.94586 16.9592 7.94586 17.5659C7.94586 18.1725 8.18573 18.6882 8.66546 19.1129C9.14519 19.5375 9.71793 19.7499 10.3837 19.7499ZM21.3979 19.7499C22.0832 19.7499 22.6657 19.5375 23.1455 19.1129C23.6252 18.6882 23.865 18.1725 23.865 17.5659C23.865 16.9592 23.6252 16.4479 23.1455 16.0319C22.6657 15.6159 22.0832 15.4079 21.3979 15.4079C20.7321 15.4079 20.1594 15.6159 19.6797 16.0319C19.1999 16.4479 18.9601 16.9592 18.9601 17.5659C18.9601 18.1725 19.1999 18.6882 19.6797 19.1129C20.1594 19.5375 20.7321 19.7499 21.3979 19.7499Z" fill="black"/>
</svg>
