<svg width="27" height="21" viewBox="0 0 27 21" fill="none" xmlns="http://www.w3.org/2000/svg">
<path d="M6.85354 2.4078C5.9724 2.4078 5.1549 2.6028 4.40104 2.9928C3.64718 3.3828 3.04997 3.91146 2.6094 4.5788C2.16883 5.24613 1.94855 5.9698 1.94855 6.7498C1.94855 8.53513 2.52618 10.2338 3.68145 11.8458C4.62133 13.1978 5.93324 14.4631 7.61719 15.6418C9.12491 16.7338 10.8578 17.6958 12.8159 18.5278L12.9627 18.5798C14.9796 17.7305 16.781 16.7425 18.367 15.6158L18.3083 15.6418C19.9922 14.4631 21.3042 13.1978 22.244 11.8458C23.3993 10.2338 23.9769 8.53513 23.9769 6.7498C23.9769 5.9698 23.7567 5.24613 23.3161 4.5788C22.8755 3.91146 22.2783 3.3828 21.5244 2.9928C20.7706 2.6028 19.9531 2.4078 19.0719 2.4078C18.2887 2.4078 17.5495 2.55946 16.8544 2.8628C16.1593 3.16613 15.5719 3.58213 15.0922 4.1108C14.6124 4.63946 14.304 5.23313 14.167 5.8918C14.1082 6.13446 13.9663 6.33813 13.7411 6.5028C13.5159 6.66746 13.2565 6.7498 12.9627 6.7498C12.669 6.7498 12.4096 6.66746 12.1844 6.5028C11.9592 6.33813 11.8173 6.13446 11.7585 5.8918C11.6215 5.23313 11.3131 4.63946 10.8333 4.1108C10.3536 3.58213 9.76618 3.16613 9.07106 2.8628C8.37594 2.55946 7.63677 2.4078 6.85354 2.4078ZM12.9627 20.8418C12.7865 20.8245 12.6103 20.7898 12.4341 20.7378C12.3362 20.7031 12.1697 20.6338 11.9348 20.5298C9.78086 19.6285 7.813 18.5451 6.03114 17.2798L6.08989 17.3318C4.19055 16.0145 2.69262 14.5758 1.5961 13.0158C0.20586 11.0398 -0.489258 8.95113 -0.489258 6.7498C-0.489258 5.57113 -0.16128 4.48346 0.494677 3.4868C1.15063 2.49013 2.04156 1.70146 3.16745 1.1208C4.29335 0.54013 5.52204 0.249796 6.85354 0.249796C8.08713 0.249796 9.2375 0.496796 10.3047 0.990796C11.3718 1.4848 12.2578 2.15646 12.9627 3.0058V3.0318C13.6677 2.16513 14.5537 1.4848 15.6208 0.990796C16.688 0.496796 17.8384 0.249796 19.0719 0.249796C20.4034 0.249796 21.6321 0.54013 22.758 1.1208C23.8839 1.70146 24.7749 2.49013 25.4308 3.4868C26.0868 4.48346 26.4147 5.57113 26.4147 6.7498C26.4147 8.95113 25.7196 11.0398 24.3294 13.0158C23.2329 14.5758 21.7349 16.0145 19.8356 17.3318C18.0929 18.5451 16.2034 19.5938 14.167 20.4778L13.9907 20.5298C13.5208 20.7378 13.1781 20.8418 12.9627 20.8418Z" fill="black"/>
</svg>
