<svg width="21" height="18" viewBox="0 0 21 18" fill="none" xmlns="http://www.w3.org/2000/svg">
<path d="M21 9.34277C21 9.81739 20.6473 10.2096 20.1897 10.2717L20.0625 10.2803L1.3125 10.2803C0.794733 10.2803 0.375 9.86054 0.375 9.34277C0.375 8.86815 0.727692 8.47591 1.18529 8.41383L1.3125 8.40527L20.0625 8.40527C20.5803 8.40527 21 8.82501 21 9.34277Z" fill="black"/>
<path d="M9.53648 16.2089C9.90339 16.5742 9.90467 17.1678 9.53934 17.5347C9.20722 17.8683 8.68646 17.8997 8.31886 17.6281L8.21352 17.5376L0.651016 10.0076C0.31647 9.67449 0.286036 9.15185 0.55973 8.78426L0.650962 8.67898L8.21346 1.14773C8.58034 0.78237 9.17393 0.783599 9.53928 1.15047C9.87143 1.48399 9.90061 2.00489 9.62753 2.37134L9.53654 2.4763L2.6415 9.34364L9.53648 16.2089Z" fill="black"/>
</svg>
