<svg width="21" height="21" viewBox="0 0 21 21" fill="none" xmlns="http://www.w3.org/2000/svg">
<path d="M20.3226 19.242L16.4103 15.3296C17.0871 14.5372 17.6153 13.6416 17.995 12.6429C18.3747 11.6442 18.5645 10.6083 18.5645 9.53529C18.5645 7.90101 18.1518 6.38228 17.3264 4.9791C16.5341 3.60894 15.4528 2.51942 14.0826 1.71053C12.6795 0.885134 11.1525 0.472435 9.50168 0.472435C7.85089 0.472435 6.3239 0.885134 4.92073 1.71053C3.55057 2.50291 2.46105 3.57593 1.65216 4.92958C0.826761 6.34926 0.414062 7.88037 0.414062 9.52291C0.414062 11.1655 0.826761 12.6883 1.65216 14.0915C2.44454 15.4616 3.51755 16.5512 4.87121 17.3601C6.29089 18.202 7.82613 18.6229 9.47692 18.6229C10.5499 18.6229 11.5858 18.4331 12.5845 18.0534C13.5833 17.6737 14.4788 17.1455 15.2712 16.4686L19.1836 20.381C19.2331 20.4305 19.3074 20.4759 19.4064 20.5172C19.5055 20.5585 19.6045 20.5791 19.7036 20.5791C19.8026 20.5791 19.9017 20.5585 20.0007 20.5172C20.0998 20.4759 20.1741 20.4305 20.2236 20.381C20.4217 20.1829 20.5249 19.9848 20.5331 19.7867C20.5414 19.5886 20.4712 19.407 20.3226 19.242ZM2.04835 9.43624C2.04835 8.08259 2.38676 6.82799 3.06359 5.67244C3.7239 4.5664 4.60708 3.68323 5.71311 3.02291C6.86867 2.34609 8.12327 2.00767 9.47692 2.00767C10.8306 2.00767 12.0852 2.35434 13.2407 3.04767C14.3633 3.70799 15.2547 4.60767 15.915 5.74672C16.5753 6.88577 16.9055 8.12386 16.9055 9.46101C16.9055 10.7981 16.5588 12.0445 15.8655 13.2001C15.2052 14.3226 14.3055 15.214 13.1664 15.8743C12.0274 16.5347 10.7976 16.8648 9.47692 16.8648C8.13978 16.8978 6.88517 16.5759 5.71311 15.8991C4.60708 15.2553 3.71978 14.3556 3.05121 13.2001C2.38263 12.0445 2.04835 10.7899 2.04835 9.43624Z" fill="#122C6C"/>
</svg>
