<svg width="17" height="29" viewBox="0 0 17 29" fill="none" xmlns="http://www.w3.org/2000/svg">
<path d="M8.55482 15.1047C4.4609 15.1047 1.11133 11.7551 1.11133 7.66121C1.11133 3.56728 4.4609 0.217712 8.55482 0.217712C12.6487 0.217712 15.9983 3.56728 15.9983 7.66121C15.9983 11.7551 12.6487 15.1047 8.55482 15.1047ZM8.55482 3.75337C6.41482 3.75337 4.64699 5.5212 4.64699 7.66121C4.64699 9.80121 6.41482 11.569 8.55482 11.569C10.6948 11.569 12.4627 9.80121 12.4627 7.66121C12.4627 5.5212 10.6948 3.75337 8.55482 3.75337Z" fill="black"/>
<path d="M16.5563 15.849C15.905 15.0116 14.7885 14.9186 13.9511 15.4769C13.9511 15.4769 11.9041 16.9656 8.55454 16.9656C5.20497 16.9656 3.15801 15.4769 3.15801 15.4769C2.32061 14.8255 1.20409 15.0116 0.552783 15.849C-0.0985224 16.6864 0.0875646 17.8029 0.924958 18.4543C1.018 18.5473 2.97192 20.036 6.22845 20.5012L1.29713 25.5256C0.552784 26.2699 0.552784 27.4795 1.29713 28.1308C1.66931 28.503 2.13453 28.6891 2.59974 28.6891C3.06496 28.6891 3.53018 28.503 3.90236 28.1308L8.55454 23.3856L13.2067 28.1308C13.5789 28.503 14.0441 28.6891 14.5093 28.6891C14.9746 28.6891 15.4398 28.503 15.8119 28.1308C16.5563 27.3864 16.5563 26.2699 15.8119 25.5256L10.8806 20.5012C14.1372 19.943 16.0911 18.4543 16.1841 18.4543C17.0215 17.8029 17.2076 16.5934 16.5563 15.849Z" fill="black"/>
</svg>
