<svg width="38" height="34" viewBox="0 0 38 34" fill="none" xmlns="http://www.w3.org/2000/svg">
<path fill-rule="evenodd" clip-rule="evenodd" d="M8.5671 20.3074C8.64461 20.3342 8.72431 20.3536 8.80521 20.3654C9.31557 21.6122 9.82307 22.8602 10.3277 24.1095C11.2351 26.3574 12.1496 28.6727 12.3499 29.3384C12.6006 30.1576 12.864 30.7149 13.1526 31.0964C13.3023 31.2909 13.4737 31.463 13.6757 31.5939C13.781 31.6621 13.8936 31.7174 14.0113 31.7584C14.5885 31.9829 15.1152 31.8894 15.4454 31.7753C15.6391 31.7067 15.8234 31.6124 15.9937 31.4947L16.0028 31.491L21.1006 28.1958L26.9903 32.8749C27.0769 32.9441 27.1707 33.0021 27.2717 33.0489C27.9788 33.3668 28.6643 33.479 29.3101 33.3892C29.9523 33.2957 30.4628 33.0171 30.8434 32.701C31.2805 32.3358 31.6289 31.8695 31.8608 31.3395L31.8771 31.2984L31.8825 31.2834L31.8861 31.2759V31.2722L31.8879 31.2703C31.9192 31.1899 31.9434 31.1066 31.96 31.0216L37.3357 2.92234C37.3526 2.8324 37.3611 2.74095 37.3609 2.6493C37.3609 1.82643 37.0615 1.04283 36.3597 0.569676C35.7572 0.16385 35.088 0.145148 34.6641 0.178811C34.2095 0.216214 33.7874 0.332164 33.5042 0.425673C33.3456 0.477766 33.1892 0.536412 33.0352 0.601469L33.0153 0.610819L2.86498 12.8716L2.86137 12.8735C2.75936 12.9124 2.65886 12.9554 2.56012 13.0025C2.32103 13.114 2.09169 13.2466 1.87464 13.399C1.46515 13.6889 0.521713 14.4856 0.68226 15.8022C0.808533 16.8495 1.50123 17.4947 1.92515 17.8051C2.15604 17.9753 2.37612 18.0969 2.53847 18.1773C2.61063 18.2147 2.76576 18.2783 2.83251 18.3082L2.85054 18.3138L8.5671 20.3074ZM34.0706 3.19165H34.067C34.0515 3.1988 34.0358 3.20566 34.0201 3.21222L3.83367 15.4899C3.81814 15.4964 3.8025 15.5026 3.78677 15.5086L3.76873 15.5142C3.71359 15.5366 3.65942 15.5616 3.60638 15.589C3.65659 15.6188 3.70838 15.6456 3.76151 15.6694L9.42936 17.648C9.53064 17.6834 9.62753 17.7311 9.71798 17.7902L28.437 6.42891L28.4551 6.41956C28.5278 6.37375 28.6024 6.33131 28.6788 6.29238C28.8086 6.22319 29.0161 6.1222 29.2506 6.04739C29.4129 5.99503 29.8946 5.84729 30.4141 6.02121C30.6897 6.11126 30.9352 6.27983 31.1228 6.50768C31.3104 6.73553 31.4323 7.01347 31.4748 7.30976C31.542 7.56924 31.5438 7.84226 31.4802 8.10271C31.3539 8.617 31.0076 9.01722 30.6919 9.32393C30.4213 9.58575 26.9109 13.0942 23.4493 16.5577L18.7357 21.2705L17.8969 22.1121L28.4893 30.5316C28.6323 30.5938 28.7876 30.6195 28.9421 30.6064C29.02 30.5955 29.0932 30.5617 29.1532 30.5092C29.2263 30.4452 29.289 30.3694 29.339 30.2847L29.3426 30.2829L34.5558 3.02894C34.3916 3.0699 34.2306 3.12366 34.0742 3.18978L34.0706 3.19165ZM18.8078 26.3705L16.6937 24.6911L16.1813 28.0667L18.8078 26.3705ZM14.7545 21.3584L16.856 19.2545L21.5696 14.5379L23.3248 12.7837L11.5634 19.9222L11.6265 20.0755C12.3683 21.8922 13.1019 23.7126 13.8273 25.5364L14.3378 22.1701C14.384 21.8579 14.5308 21.573 14.7545 21.3584Z" fill="black"/>
</svg>
