<svg width="21" height="22" viewBox="0 0 21 22" fill="none" xmlns="http://www.w3.org/2000/svg">
<path d="M13.7328 8.93664C12.8492 9.47397 11.892 9.74264 10.8612 9.74264C10.1801 9.74264 9.522 9.61697 8.88694 9.36564C8.25187 9.1143 7.69044 8.7633 7.20263 8.31264C6.71483 7.86197 6.34207 7.33764 6.08437 6.73964C5.82666 6.14164 5.6978 5.52197 5.6978 4.88064C5.6978 3.8753 5.98773 2.9653 6.56757 2.15064C7.14741 1.33597 7.91133 0.742303 8.85933 0.369637C9.80732 -0.00302981 10.8151 -0.0940298 11.8828 0.0966368C12.8768 0.26997 13.7512 0.707637 14.5059 1.40964C15.2606 2.11164 15.7346 2.94364 15.9279 3.90564C16.1212 4.86764 16.0245 5.80797 15.638 6.72664C15.2514 7.6453 14.6163 8.38197 13.7328 8.93664ZM12.4626 2.61864C11.984 2.32397 11.4502 2.17664 10.8612 2.17664C10.088 2.17664 9.40695 2.43664 8.81791 2.95664C8.26568 3.5113 7.98956 4.15264 7.98956 4.88064C7.98956 5.4353 8.15063 5.93797 8.47276 6.38864C8.7949 6.8393 9.22288 7.16864 9.7567 7.37664C10.2905 7.58464 10.8428 7.63664 11.4134 7.53264C11.984 7.42864 12.4764 7.18164 12.8906 6.79164C13.3048 6.40164 13.5671 5.93797 13.6775 5.40064C13.788 4.8633 13.7328 4.3433 13.5119 3.84064C13.291 3.33797 12.9412 2.93064 12.4626 2.61864ZM3.5441 13.6946C4.5013 12.776 5.61497 12.0696 6.8851 11.5756C8.15523 11.0816 9.48059 10.8346 10.8612 10.8346C12.2417 10.8346 13.5671 11.0816 14.8372 11.5756C16.1074 12.0696 17.2256 12.7716 18.192 13.6816C19.1584 14.5916 19.9039 15.6446 20.4286 16.8406C20.9532 18.0366 21.2155 19.2846 21.2155 20.5846C21.2155 20.8966 21.0958 21.1566 20.8565 21.3646C20.6172 21.5726 20.3503 21.6766 20.0558 21.6766H14.3126C13.9997 21.6766 13.7282 21.5683 13.4981 21.3516C13.268 21.135 13.1529 20.8793 13.1529 20.5846C13.1529 20.29 13.268 20.0343 13.4981 19.8176C13.7282 19.601 13.9997 19.4926 14.3126 19.4926H18.8409C18.6936 18.5913 18.3899 17.7376 17.9297 16.9316C17.4695 16.1256 16.8713 15.428 16.135 14.8386C15.3987 14.2493 14.5795 13.7943 13.6775 13.4736C12.7756 13.153 11.8368 12.9926 10.8612 12.9926C9.88555 12.9926 8.94676 13.153 8.04479 13.4736C7.14281 13.7943 6.32367 14.2493 5.58736 14.8386C4.85105 15.428 4.2528 16.1256 3.79261 16.9316C3.33242 17.7376 3.02869 18.5913 2.88143 19.4926H7.40972C7.70424 19.4926 7.98036 19.5966 8.23807 19.8046C8.45896 20.0473 8.5694 20.3073 8.5694 20.5846C8.5694 20.862 8.45896 21.122 8.23807 21.3646C7.98036 21.5726 7.70424 21.6766 7.40972 21.6766H1.66652C1.372 21.6766 1.10509 21.5726 0.865786 21.3646C0.626486 21.1566 0.506836 20.8966 0.506836 20.5846C0.506836 19.2846 0.769146 18.041 1.29376 16.8536C1.81838 15.6663 2.5685 14.6133 3.5441 13.6946Z" fill="#222222"/>
</svg>
