<svg width="30" height="30" viewBox="0 0 30 30" fill="none" xmlns="http://www.w3.org/2000/svg">
<path d="M25 15.3429C25 15.8175 24.6473 16.2098 24.1897 16.2718L24.0625 16.2804L5.3125 16.2804C4.79473 16.2804 4.375 15.8607 4.375 15.3429C4.375 14.8683 4.72769 14.476 5.18529 14.414L5.3125 14.4054L24.0625 14.4054C24.5803 14.4054 25 14.8251 25 15.3429Z" fill="black"/>
<path d="M13.536 22.209C13.9029 22.5744 13.9042 23.168 13.5389 23.5349C13.2067 23.8684 12.686 23.8998 12.3184 23.6283L12.213 23.5377L4.65053 16.0077C4.31598 15.6746 4.28555 15.152 4.55924 14.7844L4.65047 14.6791L12.213 7.14785C12.5798 6.78249 13.1734 6.78372 13.5388 7.1506C13.8709 7.48412 13.9001 8.00501 13.627 8.37146L13.5361 8.47642L6.64101 15.3438L13.536 22.209Z" fill="black"/>
</svg>
