<svg width="1920" height="1117" viewBox="0 0 1920 1117" fill="none" xmlns="http://www.w3.org/2000/svg">
<path d="M114.673 8.5C152.897 181.757 133.785 424.318 0 528.272" stroke="#67430C" stroke-width="0.5" stroke-linecap="round"/>
<path d="M267.57 8.5C337.648 268.386 382.243 850.531 0 1100.02" stroke="#67430C" stroke-width="0.5" stroke-linecap="round"/>
<path d="M564 0C532.146 450.469 447.225 1370.3 19.1123 1411.89" stroke="#67430C" stroke-width="0.5" stroke-linecap="round"/>
<path d="M936.497 8.5C885.531 493.621 630.702 1536.63 19.1123 1827.7" stroke="#67430C" stroke-width="0.5" stroke-linecap="round"/>
<path d="M1920 238.5C1117.29 1676.54 -10.3293 4178.37 1900.89 2681.43" stroke="#67430C" stroke-width="0.5" stroke-linecap="round"/>
<path d="M1280.52 8.5C1089.39 597.575 680.393 1775.73 573.365 1775.73C466.337 1775.73 146.527 2780.62 0 3283.06" stroke="#67430C" stroke-width="0.5" stroke-linecap="round"/>
<path d="M1662.76 8.5C707.151 1585.14 -814.178 5164.64 745.375 6869.49" stroke="#67430C" stroke-width="0.5" stroke-linecap="round"/>
<path d="M1920.23 918.5C1467.9 1732.81 658.82 3621.32 1920.23 2425.84" stroke="#67430C" stroke-width="0.5" stroke-linecap="round"/>
</svg>
