<svg width="1920" height="1869" viewBox="0 0 1920 1869" fill="none" xmlns="http://www.w3.org/2000/svg">
<path d="M103.673 0C141.897 173.257 122.785 415.818 -11 519.772" stroke="#67430C" stroke-width="0.5" stroke-linecap="round"/>
<path d="M256.57 0C326.648 259.886 371.243 842.031 -11 1091.52" stroke="#67430C" stroke-width="0.5" stroke-linecap="round"/>
<path d="M638.814 0C606.96 450.469 436.225 1361.8 8.1123 1403.39" stroke="#67430C" stroke-width="0.5" stroke-linecap="round"/>
<path d="M925.497 0C874.531 485.121 619.702 1528.13 8.1123 1819.2" stroke="#67430C" stroke-width="0.5" stroke-linecap="round"/>
<path d="M1909 230C1106.29 1668.04 -21.3298 4169.87 1889.89 2672.93" stroke="#67430C" stroke-width="0.5" stroke-linecap="round"/>
<path d="M1269.52 0C1078.39 589.075 669.393 1767.23 562.365 1767.23C455.337 1767.23 135.527 2772.12 -11 3274.56" stroke="#67430C" stroke-width="0.5" stroke-linecap="round"/>
<path d="M1651.76 0C696.151 1576.64 -825.178 5156.14 734.375 6860.99" stroke="#67430C" stroke-width="0.5" stroke-linecap="round"/>
<path d="M1920.23 852C1467.9 1666.31 658.82 3554.82 1920.23 2359.34" stroke="#67430C" stroke-width="0.5" stroke-linecap="round"/>
</svg>
