<svg width="20" height="21" viewBox="0 0 20 21" fill="none" xmlns="http://www.w3.org/2000/svg">
<g clip-path="url(#clip0_43_1539)">
<path d="M15.1082 7.59827H1.43914C1.0418 7.59827 0.719727 7.92034 0.719727 8.31768V12.946C0.719727 17.1115 4.10848 20.4999 8.27371 20.4999C12.4389 20.4999 15.8277 17.1115 15.8277 12.946V8.31768C15.8277 7.92034 15.5056 7.59827 15.1082 7.59827ZM14.3888 12.946C14.3888 16.318 11.6456 19.0611 8.27367 19.0611C4.90172 19.0611 2.15859 16.3179 2.15859 12.946V9.03713H14.3888L14.3888 12.946Z" fill="black"/>
<path d="M17.0502 10.548H15.1075V11.9868H17.0502C17.7783 11.9868 18.3932 12.6017 18.3932 13.3298C18.3932 14.0578 17.778 14.6727 17.0502 14.6727H14.6279V16.1116H17.0502C18.5841 16.1116 19.832 14.8638 19.832 13.3298C19.832 11.7957 18.584 10.548 17.0502 10.548Z" fill="black"/>
<path d="M8.27313 0.5C7.87578 0.5 7.55371 0.82207 7.55371 1.21941V4.64867C7.55371 5.04602 7.87578 5.36809 8.27313 5.36809C8.67047 5.36809 8.99254 5.04602 8.99254 4.64867V1.21941C8.99254 0.82207 8.67047 0.5 8.27313 0.5Z" fill="black"/>
<path d="M11.7028 1.65112C11.3055 1.65112 10.9834 1.97319 10.9834 2.37054V5.79979C10.9834 6.19714 11.3055 6.51921 11.7028 6.51921C12.1002 6.51921 12.4222 6.19714 12.4222 5.79979V2.37054C12.4223 1.97315 12.1002 1.65112 11.7028 1.65112Z" fill="black"/>
<path d="M4.84441 1.65112C4.44707 1.65112 4.125 1.97319 4.125 2.37054V5.79979C4.125 6.19714 4.44707 6.51921 4.84441 6.51921C5.24176 6.51921 5.56383 6.19714 5.56383 5.79979V2.37054C5.56383 1.97315 5.24176 1.65112 4.84441 1.65112Z" fill="black"/>
<path d="M15.4677 19.0612H0.887383C0.490039 19.0612 0.167969 19.3832 0.167969 19.7806C0.167969 20.1779 0.490039 20.5 0.887383 20.5H15.4677C15.8651 20.5 16.1871 20.1779 16.1871 19.7806C16.1871 19.3832 15.8651 19.0612 15.4677 19.0612Z" fill="black"/>
</g>
<defs>
<clipPath id="clip0_43_1539">
<rect width="20" height="20" fill="white" transform="translate(0 0.5)"/>
</clipPath>
</defs>
</svg>
