<svg width="19" height="19" viewBox="0 0 19 19" fill="none" xmlns="http://www.w3.org/2000/svg">
<g clip-path="url(#clip0_43_1498)">
<path d="M5.83423 2.22796H2.09023C1.70623 2.22796 1.38523 2.34796 1.12723 2.58796C0.869234 2.82796 0.740234 3.13396 0.740234 3.50596V7.24996C0.740234 7.62196 0.872234 7.93996 1.13623 8.20396C1.40023 8.46796 1.71823 8.59996 2.09023 8.59996H5.83423C6.21823 8.59996 6.53923 8.46796 6.79723 8.20396C7.05523 7.93996 7.18423 7.62196 7.18423 7.24996V3.50596C7.18423 3.13396 7.05523 2.82796 6.79723 2.58796C6.53923 2.34796 6.21823 2.22796 5.83423 2.22796ZM5.97823 7.24996C5.97823 7.28596 5.96323 7.31896 5.93323 7.34896C5.90323 7.37896 5.87023 7.39396 5.83423 7.39396H2.09023C2.05423 7.42996 2.01823 7.42696 1.98223 7.38496C1.94623 7.34296 1.92823 7.29796 1.92823 7.24996V3.50596C1.92823 3.45796 1.94623 3.41896 1.98223 3.38896C2.01823 3.35896 2.05423 3.34396 2.09023 3.34396H5.83423C5.87023 3.34396 5.90323 3.35896 5.93323 3.38896C5.96323 3.41896 5.97823 3.45796 5.97823 3.50596V7.24996ZM14.0782 2.22796H10.3342C9.96223 2.22796 9.64423 2.35696 9.38023 2.61496C9.11623 2.87296 8.98423 3.19396 8.98423 3.57796V7.32196C8.98423 7.69396 9.11623 8.01196 9.38023 8.27596C9.64423 8.53996 9.96223 8.67196 10.3342 8.67196H14.0782C14.4622 8.67196 14.7832 8.53996 15.0412 8.27596C15.2992 8.01196 15.4282 7.69396 15.4282 7.32196V3.50596C15.4282 3.13396 15.2992 2.82796 15.0412 2.58796C14.7832 2.34796 14.4622 2.22796 14.0782 2.22796ZM14.2402 7.24996C14.2402 7.28596 14.2252 7.31896 14.1952 7.34896C14.1652 7.37896 14.1262 7.39396 14.0782 7.39396H10.3342C10.2982 7.39396 10.2652 7.37896 10.2352 7.34896C10.2052 7.31896 10.1902 7.28596 10.1902 7.24996V3.50596C10.1902 3.45796 10.2052 3.41896 10.2352 3.38896C10.2652 3.35896 10.2982 3.34396 10.3342 3.34396H14.0782C14.1262 3.34396 14.1652 3.35896 14.1952 3.38896C14.2252 3.41896 14.2402 3.45796 14.2402 3.50596V7.24996ZM14.0782 10.472H10.3342C9.96223 10.472 9.64423 10.601 9.38023 10.859C9.11623 11.117 8.98423 11.438 8.98423 11.822V15.566C8.98423 15.95 9.11623 16.274 9.38023 16.538C9.64423 16.802 9.96223 16.934 10.3342 16.934H14.0782C14.4502 16.934 14.7682 16.802 15.0322 16.538C15.2962 16.274 15.4282 15.95 15.4282 15.566V11.822C15.4282 11.414 15.2992 11.087 15.0412 10.841C14.7832 10.595 14.4622 10.472 14.0782 10.472ZM14.2402 15.494C14.2402 15.53 14.2252 15.566 14.1952 15.602C14.1652 15.638 14.1262 15.656 14.0782 15.656H10.3342C10.2982 15.656 10.2652 15.638 10.2352 15.602C10.2052 15.566 10.1902 15.53 10.1902 15.494V11.75C10.1902 11.714 10.2052 11.681 10.2352 11.651C10.2652 11.621 10.2982 11.606 10.3342 11.606H14.0782C14.1262 11.606 14.1652 11.621 14.1952 11.651C14.2252 11.681 14.2402 11.714 14.2402 11.75V15.494ZM5.83423 10.472H2.09023C1.71823 10.472 1.40023 10.601 1.13623 10.859C0.872234 11.117 0.740234 11.438 0.740234 11.822V15.566C0.740234 15.95 0.872234 16.274 1.13623 16.538C1.40023 16.802 1.71823 16.934 2.09023 16.934H5.83423C6.20623 16.934 6.52423 16.802 6.78823 16.538C7.05223 16.274 7.18423 15.95 7.18423 15.566V11.822C7.18423 11.414 7.05523 11.087 6.79723 10.841C6.53923 10.595 6.21823 10.472 5.83423 10.472ZM5.97823 15.494C5.97823 15.53 5.96323 15.566 5.93323 15.602C5.90323 15.638 5.87023 15.656 5.83423 15.656H2.09023C2.05423 15.656 2.01823 15.638 1.98223 15.602C1.94623 15.566 1.92823 15.53 1.92823 15.494V11.75C1.92823 11.714 1.94623 11.681 1.98223 11.651C2.01823 11.621 2.05423 11.606 2.09023 11.606H5.83423C5.87023 11.606 5.90323 11.621 5.93323 11.651C5.96323 11.681 5.97823 11.714 5.97823 11.75V15.494Z" fill="#030712"/>
</g>
<defs>
<clipPath id="clip0_43_1498">
<rect width="18" height="18" fill="white" transform="matrix(1 0 0 -1 0.589844 18.5)"/>
</clipPath>
</defs>
</svg>
