<svg width="29" height="50" viewBox="0 0 29 50" fill="none" xmlns="http://www.w3.org/2000/svg">
<path d="M0.667374 26.5576L24.6472 49.4058C25.0473 49.7872 25.5789 50 26.1317 50C26.6845 50 27.216 49.7872 27.6162 49.4058L27.642 49.38C27.8366 49.1951 27.9916 48.9725 28.0975 48.7258C28.2034 48.4791 28.258 48.2134 28.258 47.945C28.258 47.6765 28.2034 47.4108 28.0975 47.1641C27.9916 46.9175 27.8366 46.6949 27.642 46.51L5.06059 24.9957L27.642 3.49003C27.8366 3.30512 27.9916 3.08255 28.0975 2.83585C28.2034 2.58916 28.258 2.3235 28.258 2.05503C28.258 1.78656 28.2034 1.5209 28.0975 1.2742C27.9916 1.0275 27.8366 0.804935 27.642 0.620026L27.6162 0.594208C27.216 0.21278 26.6845 0 26.1317 0C25.5789 0 25.0473 0.21278 24.6472 0.594208L0.667374 23.4424C0.456481 23.6433 0.288588 23.885 0.17387 24.1527C0.059153 24.4205 0 24.7087 0 25C0 25.2913 0.059153 25.5795 0.17387 25.8473C0.288588 26.115 0.456481 26.3567 0.667374 26.5576Z" fill="#D6C698"/>
</svg>
