<svg width="22" height="21" viewBox="0 0 22 21" fill="none" xmlns="http://www.w3.org/2000/svg">
<path fill-rule="evenodd" clip-rule="evenodd" d="M10.8859 18.9445C9.68148 18.9445 8.50725 18.9315 7.34547 18.9083C5.85925 18.8799 4.83081 17.9464 4.66281 16.4722C4.38281 14.0267 3.9037 8.26238 3.89925 8.20469C3.86903 7.84905 4.14281 7.53733 4.50992 7.50891C4.8717 7.49944 5.19881 7.74571 5.22814 8.10049C5.23259 8.15905 5.71081 13.9035 5.98814 16.3301C6.08325 17.168 6.54992 17.6003 7.37303 17.6166C9.59525 17.6623 11.8628 17.6649 14.3073 17.6218C15.1819 17.6054 15.6548 17.1818 15.7526 16.3241C16.0281 13.9182 16.5081 8.15905 16.5135 8.10049C16.5428 7.74571 16.8673 7.49771 17.2308 7.50891C17.5979 7.53819 17.8717 7.84905 17.8424 8.20469C17.837 8.26324 17.3553 14.0422 17.0779 16.4662C16.9055 17.9705 15.8797 18.8859 14.3313 18.9135C13.1464 18.9333 12.0033 18.9445 10.8859 18.9445Z" fill="#ECE0B5"/>
<path fill-rule="evenodd" clip-rule="evenodd" d="M18.4069 6.0186H3.33317C2.96517 6.0186 2.6665 5.72926 2.6665 5.37276C2.6665 5.01626 2.96517 4.72693 3.33317 4.72693H18.4069C18.775 4.72693 19.0736 5.01626 19.0736 5.37276C19.0736 5.72926 18.775 6.0186 18.4069 6.0186Z" fill="#ECE0B5"/>
<path fill-rule="evenodd" clip-rule="evenodd" d="M15.5024 6.01862C14.4908 6.01862 13.6126 5.32026 13.4135 4.35926L13.1975 3.31215C13.1521 3.15284 12.9646 3.0142 12.7512 3.0142H8.98858C8.77525 3.0142 8.58769 3.15284 8.53347 3.35176L8.32636 4.35926C8.12813 5.32026 7.24902 6.01862 6.23747 6.01862C5.86947 6.01862 5.5708 5.72928 5.5708 5.37278C5.5708 5.01628 5.86947 4.72695 6.23747 4.72695C6.61613 4.72695 6.94502 4.46517 7.01969 4.10523L7.23569 3.05812C7.45525 2.25556 8.17258 1.72253 8.98858 1.72253H12.7512C13.5672 1.72253 14.2846 2.25556 14.4952 3.01937L14.721 4.10523C14.7948 4.46517 15.1237 4.72695 15.5024 4.72695C15.8704 4.72695 16.169 5.01628 16.169 5.37278C16.169 5.72928 15.8704 6.01862 15.5024 6.01862Z" fill="#ECE0B5"/>
</svg>
