<svg width="22" height="21" viewBox="0 0 22 21" fill="none" xmlns="http://www.w3.org/2000/svg">
<path d="M6.21827 2.40804C5.50952 2.40804 4.85196 2.60304 4.24558 2.99304C3.63921 3.38304 3.15883 3.91171 2.80445 4.57904C2.45008 5.24637 2.27289 5.97004 2.27289 6.75004C2.27289 8.53537 2.73752 10.234 3.66677 11.846C4.42277 13.198 5.47802 14.4634 6.83253 15.642C8.04528 16.734 9.43916 17.696 11.0142 18.528L11.1323 18.58C12.7545 17.7307 14.2035 16.7427 15.4793 15.616L15.432 15.642C16.7865 14.4634 17.8418 13.198 18.5978 11.846C19.5271 10.234 19.9917 8.53537 19.9917 6.75004C19.9917 5.97004 19.8145 5.24637 19.4601 4.57904C19.1057 3.91171 18.6254 3.38304 18.019 2.99304C17.4126 2.60304 16.755 2.40804 16.0463 2.40804C15.4163 2.40804 14.8217 2.55971 14.2626 2.86304C13.7035 3.16637 13.231 3.58237 12.8451 4.11104C12.4592 4.63971 12.2112 5.23337 12.1009 5.89204C12.0537 6.13471 11.9395 6.33837 11.7583 6.50304C11.5772 6.66771 11.3685 6.75004 11.1323 6.75004C10.896 6.75004 10.6873 6.66771 10.5062 6.50304C10.3251 6.33837 10.2109 6.13471 10.1637 5.89204C10.0534 5.23337 9.80534 4.63971 9.41947 4.11104C9.03359 3.58237 8.56109 3.16637 8.00197 2.86304C7.44284 2.55971 6.84828 2.40804 6.21827 2.40804ZM11.1323 20.842C10.9905 20.8247 10.8488 20.79 10.707 20.738C10.6283 20.7034 10.4944 20.634 10.3054 20.53C8.5729 19.6287 6.99003 18.5454 5.55677 17.28L5.60402 17.332C4.07627 16.0147 2.87139 14.576 1.98939 13.016C0.871138 11.04 0.312012 8.95137 0.312012 6.75004C0.312012 5.57137 0.575825 4.48371 1.10345 3.48704C1.63108 2.49037 2.3477 1.70171 3.25333 1.12104C4.15896 0.540375 5.14727 0.25004 6.21827 0.25004C7.21053 0.25004 8.13584 0.49704 8.99422 0.991041C9.8526 1.48504 10.5653 2.15671 11.1323 3.00604V3.03204C11.6993 2.16537 12.412 1.48504 13.2704 0.991041C14.1287 0.49704 15.054 0.25004 16.0463 0.25004C17.1173 0.25004 18.1056 0.540375 19.0112 1.12104C19.9169 1.70171 20.6335 2.49037 21.1611 3.48704C21.6887 4.48371 21.9526 5.57137 21.9526 6.75004C21.9526 8.95137 21.3934 11.04 20.2752 13.016C19.3932 14.576 18.1883 16.0147 16.6605 17.332C15.2588 18.5454 13.7389 19.594 12.1009 20.478L11.9592 20.53C11.5812 20.738 11.3055 20.842 11.1323 20.842Z" fill="#030712"/>
</svg>
