<svg width="14" height="20" viewBox="0 0 14 20" fill="none" xmlns="http://www.w3.org/2000/svg">
<path d="M13.3404 12.76H10.7004C9.64035 12.76 8.68035 13.2 7.98035 13.88V11.64H9.68035C11.6004 11.64 13.1604 10.08 13.1604 8.16C13.1604 7.84 12.9004 7.58 12.5604 7.58H10.2804C9.38035 7.58 8.58035 7.92 7.98035 8.46V7.04L8.56035 6.46C9.22035 5.78 9.60035 4.88 9.60035 3.94C9.60035 2.98 9.22035 2.1 8.56035 1.42L7.80035 0.68C7.58035 0.44 7.20035 0.44 6.98035 0.68L6.22035 1.42C5.54035 2.1 5.18035 2.98 5.18035 3.94C5.18035 4.88 5.54035 5.78 6.22035 6.46L6.80035 7.04V8.46C6.18035 7.92 5.38035 7.58 4.50035 7.58H2.20035C1.88035 7.58 1.62035 7.84 1.62035 8.16C1.62035 10.08 3.18035 11.64 5.08035 11.64H6.80035V13.88C6.10035 13.2 5.14035 12.76 4.08035 12.76H1.44035C1.12035 12.76 0.860352 13.02 0.860352 13.36C0.860352 15.5 2.60035 17.24 4.74035 17.24H6.80035V18.68C6.80035 19 7.06035 19.26 7.38035 19.26C7.70035 19.26 7.98035 19 7.98035 18.68V17.24H10.0204C12.1804 17.24 13.9204 15.5 13.9204 13.36C13.9204 13.02 13.6604 12.76 13.3404 12.76ZM10.2804 8.76H11.9004C11.6404 9.74 10.7404 10.46 9.68035 10.46H8.04035C8.30035 9.48 9.20035 8.76 10.2804 8.76ZM5.08035 10.46C4.02035 10.46 3.12035 9.74 2.86035 8.76H4.50035C5.56035 8.76 6.46035 9.48 6.72035 10.46H5.08035ZM4.74035 16.08C3.44035 16.08 2.36035 15.16 2.08035 13.94H4.08035C5.38035 13.94 6.46035 14.86 6.74035 16.08H4.74035ZM7.38035 5.88C7.20035 5.88 6.34035 5.08 6.34035 3.94C6.34035 2.84 7.00035 2.3 7.38035 1.92C7.76035 2.28 8.42035 2.84 8.42035 3.94C8.42035 5.06 7.58035 5.88 7.38035 5.88ZM10.0204 16.08H8.04035C8.30035 14.86 9.40035 13.94 10.7004 13.94H12.6804C12.4204 15.16 11.3204 16.08 10.0204 16.08Z" fill="black"/>
</svg>
