<svg width="22" height="22" viewBox="0 0 22 22" fill="none" xmlns="http://www.w3.org/2000/svg">
<path d="M0.916743 9.1656C0.673608 9.1656 0.440431 9.06901 0.268508 8.89709C0.0965853 8.72517 0 8.49199 0 8.24885V0.916743C0 0.673608 0.0965853 0.440431 0.268508 0.268508C0.440431 0.0965853 0.673608 0 0.916743 0H8.25069C8.49382 0 8.727 0.0965853 8.89892 0.268508C9.07085 0.440431 9.16743 0.673608 9.16743 0.916743V8.24885C9.16743 8.49199 9.07085 8.72517 8.89892 8.89709C8.727 9.06901 8.49382 9.1656 8.25069 9.1656H0.916743ZM13.7511 9.1656C13.508 9.1656 13.2748 9.06901 13.1029 8.89709C12.931 8.72517 12.8344 8.49199 12.8344 8.24885V0.916743C12.8344 0.673608 12.931 0.440431 13.1029 0.268508C13.2748 0.0965853 13.508 0 13.7511 0H21.0833C21.3264 0 21.5596 0.0965853 21.7315 0.268508C21.9034 0.440431 22 0.673608 22 0.916743V8.24885C22 8.49199 21.9034 8.72517 21.7315 8.89709C21.5596 9.06901 21.3264 9.1656 21.0833 9.1656H13.7511ZM0.916743 22C0.673608 22 0.440431 21.9034 0.268508 21.7315C0.0965853 21.5596 0 21.3264 0 21.0833V13.7493C0 13.5062 0.0965853 13.273 0.268508 13.1011C0.440431 12.9292 0.673608 12.8326 0.916743 12.8326H8.25069C8.49382 12.8326 8.727 12.9292 8.89892 13.1011C9.07085 13.273 9.16743 13.5062 9.16743 13.7493V21.0833C9.16743 21.3264 9.07085 21.5596 8.89892 21.7315C8.727 21.9034 8.49382 22 8.25069 22H0.916743ZM13.7511 22C13.508 22 13.2748 21.9034 13.1029 21.7315C12.931 21.5596 12.8344 21.3264 12.8344 21.0833V13.7493C12.8344 13.5062 12.931 13.273 13.1029 13.1011C13.2748 12.9292 13.508 12.8326 13.7511 12.8326H21.0833C21.3264 12.8326 21.5596 12.9292 21.7315 13.1011C21.9034 13.273 22 13.5062 22 13.7493V21.0833C22 21.3264 21.9034 21.5596 21.7315 21.7315C21.5596 21.9034 21.3264 22 21.0833 22H13.7511Z" fill="#122C6C"/>
</svg>
