<svg width="20" height="21" viewBox="0 0 20 21" fill="none" xmlns="http://www.w3.org/2000/svg">
<path d="M16.4798 2.8C14.7398 1.32 12.4398 0.5 9.9998 0.5C7.5598 0.5 5.2598 1.32 3.5198 2.8C1.7598 4.32 0.799805 6.34 0.799805 8.48C0.799805 10.26 1.4598 11.42 2.5598 12.72C3.2798 13.58 3.6398 14.2 3.6398 15.3V18.42C3.6398 19.56 4.57981 20.5 5.71981 20.5H14.2798C15.4198 20.5 16.3598 19.56 16.3598 18.42V15.3C16.3598 14.2 16.7198 13.58 17.4398 12.72C18.5398 11.42 19.1998 10.26 19.1998 8.48C19.1998 6.34 18.2398 4.32 16.4798 2.8ZM16.5398 11.94C15.6598 12.98 15.1598 13.86 15.1598 15.3V18.42C15.1598 18.92 14.7598 19.32 14.2798 19.32H5.71981C5.23981 19.32 4.8398 18.92 4.8398 18.42V15.3C4.8398 13.86 4.3398 12.98 3.4598 11.94C2.4998 10.8 1.9798 9.92 1.9798 8.48C1.9798 4.74 5.5798 1.68 9.9998 1.68C14.4198 1.68 18.0198 4.74 18.0198 8.48C18.0198 9.92 17.4998 10.8 16.5398 11.94ZM6.93981 4.84C5.7198 4.84 4.7198 5.82 4.7198 7.04C4.7198 8.28 5.7198 9.26 6.93981 9.26C8.1598 9.26 9.15981 8.28 9.15981 7.04C9.15981 5.8 8.1598 4.84 6.93981 4.84ZM6.93981 8.08C6.37981 8.08 5.91981 7.62 5.91981 7.04C5.91981 6.48 6.37981 6.02 6.93981 6.02C7.4998 6.02 7.95981 6.48 7.95981 7.04C7.95981 7.62 7.4998 8.08 6.93981 8.08ZM13.4198 4.74C13.0998 4.74 12.7998 5 12.8198 5.34C12.8398 5.66 13.0798 5.92 13.4198 5.92C13.7198 5.92 14.0198 5.66 13.9998 5.34C13.9998 5 13.7398 4.74 13.4198 4.74ZM8.0398 10.96C7.71981 10.96 7.41981 11.24 7.43981 11.56C7.45981 11.88 7.69981 12.16 8.0398 12.16C8.35981 12.16 8.6398 11.88 8.6398 11.56C8.6198 11.24 8.37981 10.96 8.0398 10.96ZM9.9998 14.04C8.8798 14.04 7.95981 14.96 7.95981 16.08C7.95981 17.2 8.8798 18.12 9.9998 18.12C11.1198 18.12 12.0398 17.2 12.0398 16.08C12.0398 14.96 11.1198 14.04 9.9998 14.04ZM9.9998 16.94C9.5198 16.94 9.1398 16.56 9.1398 16.08C9.1398 15.6 9.5198 15.22 9.9998 15.22C10.4798 15.22 10.8598 15.6 10.8598 16.08C10.8598 16.56 10.4798 16.94 9.9998 16.94ZM13.1598 7.8C12.0598 7.8 11.1598 8.7 11.1598 9.8C11.1598 10.9 12.0598 11.8 13.1598 11.8C14.2598 11.8 15.1598 10.92 15.1598 9.8C15.1598 8.68 14.2598 7.8 13.1598 7.8ZM13.1598 10.62C12.7198 10.62 12.3398 10.26 12.3398 9.8C12.3398 9.36 12.7198 9 13.1598 9C13.5998 9 13.9598 9.36 13.9598 9.8C13.9598 10.26 13.5998 10.62 13.1598 10.62Z" fill="black"/>
</svg>
