<svg width="37" height="27" viewBox="0 0 37 27" fill="none" xmlns="http://www.w3.org/2000/svg">
<path fill-rule="evenodd" clip-rule="evenodd" d="M5.84919 4.1789H31.1038C31.5822 4.1789 32.041 4.37594 32.3793 4.72666C32.7176 5.07738 32.9077 5.55307 32.9077 6.04907V21.0104C32.9077 21.5064 32.7176 21.9821 32.3793 22.3328C32.041 22.6835 31.5822 22.8806 31.1038 22.8806H5.84919C5.37077 22.8806 4.91194 22.6835 4.57364 22.3328C4.23535 21.9821 4.0453 21.5064 4.0453 21.0104V6.04907C4.0453 5.55307 4.23535 5.07738 4.57364 4.72666C4.91194 4.37594 5.37077 4.1789 5.84919 4.1789ZM0.4375 6.04907C0.4375 4.56107 1.00766 3.13402 2.02255 2.08185C3.03744 1.02967 4.41392 0.438568 5.84919 0.438568H31.1038C32.539 0.438568 33.9155 1.02967 34.9304 2.08185C35.9453 3.13402 36.5154 4.56107 36.5154 6.04907V21.0104C36.5154 22.4984 35.9453 23.9254 34.9304 24.9776C33.9155 26.0298 32.539 26.6209 31.1038 26.6209H5.84919C4.41392 26.6209 3.03744 26.0298 2.02255 24.9776C1.00766 23.9254 0.4375 22.4984 0.4375 21.0104V6.04907ZM14.8687 7.91923L22.0843 13.5297L14.8687 19.1402V7.91923Z" fill="black"/>
</svg>
