<svg width="29" height="18" viewBox="0 0 29 18" fill="none" xmlns="http://www.w3.org/2000/svg">
<path fill-rule="evenodd" clip-rule="evenodd" d="M14.2118 17.4194H15.9436C15.9436 17.4194 16.4631 17.3297 16.7228 17.0604C16.9826 16.7911 16.9826 16.2525 16.9826 16.2525C16.9826 16.2525 16.9826 13.9185 18.0217 13.5594C19.0607 13.2003 20.4461 15.8934 21.8315 16.8808C22.8705 17.6887 23.6498 17.5092 23.6498 17.5092L27.4596 17.4194C27.4596 17.4194 29.4511 17.3297 28.4987 15.6241C28.4121 15.5343 27.9792 14.4571 25.6413 12.2129C23.2169 9.87893 23.5632 10.3278 26.4206 6.28821C28.1523 3.86448 28.845 2.42819 28.6719 1.71004C28.4987 1.08167 27.1999 1.2612 27.1999 1.2612H22.8705C22.8705 1.2612 22.5242 1.17144 22.351 1.35097C22.0912 1.53051 22.0047 1.79981 22.0047 1.79981C22.0047 1.79981 21.312 3.68494 20.4461 5.30076C18.5412 8.62218 17.7619 8.80171 17.5021 8.62218C16.8094 8.17334 16.9826 6.64728 16.9826 5.65983C16.9826 2.42819 17.5021 1.08167 16.0302 0.722595C15.5972 0.632827 15.2509 0.54306 14.0386 0.54306C12.4801 0.54306 11.1813 0.54306 10.4886 0.902132C9.96905 1.17144 9.62271 1.71004 9.88247 1.71004C10.1422 1.71004 10.8349 1.88958 11.1813 2.33842C11.5276 3.14633 11.5276 4.49285 11.5276 4.49285C11.5276 4.49285 11.7874 8.35287 10.9215 8.80171C10.3154 9.16079 9.53612 8.44264 7.80438 5.39053C6.93851 3.86448 6.24581 2.06911 6.24581 2.06911C6.24581 2.06911 6.15922 1.71004 5.89946 1.53051C5.6397 1.35097 5.20677 1.2612 5.20677 1.2612H1.13717C1.13717 1.2612 0.531063 1.2612 0.271302 1.53051C0.0981281 1.79981 0.271302 2.24865 0.271302 2.24865C0.271302 2.24865 3.47502 9.9687 7.11168 13.9185C10.4886 17.6887 14.2118 17.4194 14.2118 17.4194Z" fill="black"/>
</svg>
