<svg width="18" height="21" viewBox="0 0 18 21" fill="none" xmlns="http://www.w3.org/2000/svg">
<path d="M8.0004 20.46C6.0604 20.46 4.2404 19.7 2.8604 18.32C2.1404 17.6 1.5204 16.74 1.1204 15.8C0.660398 14.78 0.400398 13.7 0.400398 12.58C0.360398 10.04 1.5404 7.48 3.8204 5.22C4.7204 4.3 6.9204 2.48 9.4004 1.38C12.4804 0.0400001 15.0004 0.24 16.7204 1.94C17.1404 2.36 17.4404 3.04 17.5404 3.76C17.6204 4.38 17.6004 5.32 16.9804 6.3C15.5404 8.62 15.0004 10.48 15.2204 12.3C15.5004 14.54 14.7404 16.74 13.1404 18.34C11.7604 19.7 9.9404 20.46 8.0004 20.46ZM13.1004 1.66C12.1604 1.66 11.0804 1.92 9.8804 2.46C7.5604 3.48 5.5004 5.2 4.6404 6.04C0.360398 10.34 1.0804 14.88 3.6804 17.5C6.0604 19.88 9.9204 19.88 12.3204 17.5C13.6404 16.18 14.2804 14.32 14.0604 12.44C13.8004 10.34 14.4004 8.26 15.9804 5.7C16.7804 4.38 16.2604 3.14 15.8804 2.78C15.1404 2.04 14.2204 1.66 13.1004 1.66ZM8.0004 18.12C6.6804 18.12 5.4404 17.6 4.5204 16.66C3.4004 15.56 2.7604 14.06 2.7404 12.56C2.7204 11.68 2.9204 10.78 3.3004 9.9C3.7604 8.88 4.4804 7.86 5.4604 6.88C7.1404 5.2 10.6204 2.84 13.1004 2.84C13.6404 2.84 14.0804 2.94 14.4804 3.16C14.8004 3.34 15.0404 3.64 15.1404 4C15.2404 4.36 15.1804 4.74 15.0004 5.06L14.9804 5.08C13.2804 7.84 12.6204 10.22 12.9004 12.58C13.0804 14.1 12.5604 15.6 11.4804 16.68C10.5404 17.6 9.3204 18.12 8.0004 18.12ZM13.1004 4.02C11.0804 4.02 7.8404 6.16 6.3004 7.7C5.4204 8.58 4.7804 9.48 4.3804 10.38C4.0604 11.1 3.9004 11.84 3.9004 12.54C3.9204 13.74 4.4404 14.94 5.3404 15.84C6.0604 16.56 7.0004 16.94 8.0004 16.94C9.0004 16.94 9.9404 16.56 10.6604 15.84C11.4804 15.02 11.8804 13.88 11.7404 12.72C11.4204 10.1 12.1404 7.46 13.9804 4.46C14.0204 4.4 14.0204 4.34 14.0004 4.3C14.0004 4.28 13.9804 4.22 13.9204 4.18C13.7004 4.06 13.4404 4.02 13.1004 4.02ZM8.0404 15.16C7.0004 15.16 6.1604 14.32 6.1604 13.28C6.1604 12.24 7.0004 11.4 8.0404 11.4C9.0804 11.4 9.9204 12.24 9.9204 13.28C9.9204 14.32 9.0804 15.16 8.0404 15.16ZM8.0404 12.58C7.6604 12.58 7.3404 12.88 7.3404 13.28C7.3404 13.68 7.6604 13.98 8.0404 13.98C8.4204 13.98 8.7604 13.66 8.7604 13.28C8.7604 12.9 8.4404 12.58 8.0404 12.58Z" fill="black"/>
</svg>
