<svg width="18" height="21" viewBox="0 0 18 21" fill="none" xmlns="http://www.w3.org/2000/svg">
<path d="M13.5803 5.11996C12.3403 4.91996 11.1203 5.17996 10.0803 5.85996C10.3803 5.17996 10.8803 4.55996 11.5403 4.01996C12.3203 3.35996 13.0603 3.05996 13.0603 3.05996C13.3603 2.93996 13.5203 2.59996 13.4003 2.29996C13.2803 1.97996 12.9403 1.83996 12.6403 1.95996C12.5403 1.99996 11.0603 2.57996 9.90025 3.93996C9.86025 3.73996 9.78025 3.51996 9.70025 3.29996C9.02025 1.49996 7.10025 0.599961 7.02025 0.559961C6.88025 0.479961 6.72025 0.479961 6.56025 0.539961C6.40025 0.599961 6.28025 0.719961 6.22025 0.859961C6.20025 0.939961 5.38025 2.87996 6.06025 4.69996C6.14025 4.85996 6.20025 5.01996 6.28025 5.15996C5.68025 5.03996 5.06025 5.01996 4.42025 5.11996C1.66025 5.55996 -0.219747 8.21996 0.200253 11.04C0.520253 13.06 0.960253 14.8 1.54025 16.18C2.20025 17.78 3.02025 18.94 4.00025 19.66C4.78025 20.22 5.64025 20.5 6.58025 20.5C6.84025 20.5 7.10025 20.48 7.38025 20.44C8.00025 20.34 8.54025 20.1 9.00025 19.76C9.46025 20.1 10.0003 20.34 10.6403 20.44C11.8803 20.64 13.0203 20.38 14.0003 19.66C14.9803 18.94 15.8003 17.78 16.4603 16.18C17.0403 14.8 17.5003 13.06 17.8003 11.04C18.2403 8.21996 16.3403 5.55996 13.5803 5.11996ZM7.12025 1.99996C7.62025 2.33996 8.28025 2.91996 8.60025 3.71996C8.90025 4.53996 8.80025 5.41996 8.66025 5.99996C8.16025 5.65996 7.50025 5.07996 7.18025 4.25996C6.88025 3.45996 6.98025 2.57996 7.12025 1.99996ZM16.6203 10.86C16.0203 14.84 14.8603 17.54 13.3003 18.68C12.5603 19.22 11.7603 19.4 10.8203 19.26C10.2403 19.16 9.80025 18.94 9.44025 18.54C9.32025 18.42 9.16025 18.36 9.00025 18.36C8.84025 18.36 8.68025 18.42 8.56025 18.54C8.20025 18.94 7.76025 19.16 7.18025 19.26C6.24025 19.4 5.44025 19.22 4.70025 18.68C3.14025 17.54 1.98025 14.84 1.38025 10.86C1.04025 8.67996 2.50025 6.63996 4.62025 6.27996C4.82025 6.25996 5.02025 6.23996 5.22025 6.23996C6.04025 6.23996 6.84025 6.51996 7.52025 7.01996C8.40025 7.69996 9.62025 7.69996 10.4803 7.01996C11.3203 6.37996 12.3603 6.11996 13.3803 6.27996C15.5003 6.63996 16.9603 8.67996 16.6203 10.86Z" fill="black"/>
</svg>
