<svg width="18" height="22" viewBox="0 0 18 22" fill="none" xmlns="http://www.w3.org/2000/svg">
<path d="M11.3164 8.93676C10.5604 9.47409 9.7414 9.74276 8.8594 9.74276C8.27664 9.74276 7.71358 9.61709 7.1702 9.36576C6.62683 9.11442 6.14645 8.76342 5.72908 8.31276C5.3117 7.86209 4.99276 7.33776 4.77226 6.73976C4.55176 6.14176 4.44151 5.52209 4.44151 4.88076C4.44151 3.87543 4.68957 2.96543 5.1857 2.15076C5.68183 1.33609 6.33545 0.742426 7.14658 0.369759C7.95771 -0.0029068 8.82002 -0.0939083 9.73352 0.0967598C10.584 0.270092 11.3322 0.707758 11.9779 1.40976C12.6237 2.11176 13.0292 2.94376 13.1946 3.90576C13.36 4.86776 13.2773 5.80809 12.9465 6.72676C12.6158 7.64542 12.0724 8.38209 11.3164 8.93676ZM10.2296 2.61876C9.82015 2.32409 9.3634 2.17676 8.8594 2.17676C8.19789 2.17676 7.61514 2.43676 7.11114 2.95676C6.63864 3.51143 6.40239 4.15276 6.40239 4.88076C6.40239 5.43542 6.5402 5.93809 6.81583 6.38876C7.09145 6.83943 7.45764 7.16876 7.91439 7.37676C8.37114 7.58476 8.84365 7.63676 9.3319 7.53276C9.82015 7.42876 10.2415 7.18176 10.5958 6.79176C10.9502 6.40176 11.1747 5.93809 11.2692 5.40076C11.3637 4.86343 11.3164 4.34343 11.1274 3.84076C10.9384 3.33809 10.6391 2.93076 10.2296 2.61876ZM2.59876 13.6948C3.41776 12.7761 4.37064 12.0698 5.45739 11.5758C6.54414 11.0818 7.67814 10.8348 8.8594 10.8348C10.0406 10.8348 11.1747 11.0818 12.2614 11.5758C13.3482 12.0698 14.305 12.7718 15.1318 13.6818C15.9587 14.5918 16.5966 15.6448 17.0455 16.8408C17.4944 18.0368 17.7188 19.2848 17.7188 20.5848C17.7188 20.8968 17.6164 21.1568 17.4117 21.3648C17.2069 21.5728 16.9785 21.6768 16.7265 21.6768H11.8125C11.5448 21.6768 11.3125 21.5684 11.1156 21.3518C10.9187 21.1351 10.8203 20.8794 10.8203 20.5848C10.8203 20.2901 10.9187 20.0344 11.1156 19.8178C11.3125 19.6011 11.5448 19.4928 11.8125 19.4928H15.687C15.561 18.5914 15.3012 17.7378 14.9074 16.9318C14.5137 16.1258 14.0018 15.4281 13.3718 14.8388C12.7418 14.2494 12.0409 13.7944 11.2692 13.4738C10.4974 13.1531 9.69415 12.9928 8.8594 12.9928C8.02464 12.9928 7.22139 13.1531 6.44964 13.4738C5.67789 13.7944 4.97701 14.2494 4.34701 14.8388C3.71701 15.4281 3.20513 16.1258 2.81138 16.9318C2.41763 17.7378 2.15775 18.5914 2.03175 19.4928H5.90626C6.15826 19.4928 6.39451 19.5968 6.61502 19.8048C6.80402 20.0474 6.89852 20.3074 6.89852 20.5848C6.89852 20.8621 6.80402 21.1221 6.61502 21.3648C6.39451 21.5728 6.15826 21.6768 5.90626 21.6768H0.992252C0.740252 21.6768 0.511876 21.5728 0.307126 21.3648C0.102375 21.1568 0 20.8968 0 20.5848C0 19.2848 0.224438 18.0411 0.673314 16.8538C1.12219 15.6664 1.764 14.6134 2.59876 13.6948Z" fill="#030712"/>
</svg>
