<svg width="23" height="20" viewBox="0 0 23 20" fill="none" xmlns="http://www.w3.org/2000/svg">
<path d="M20.1916 0.25H1.00803C0.771779 0.284666 0.574903 0.406 0.417403 0.614C0.259903 0.822001 0.181152 1.056 0.181152 1.316C0.181152 1.576 0.259903 1.81433 0.417403 2.031C0.574903 2.24767 0.771779 2.37333 1.00803 2.408H4.81166L4.12654 12.002V12.184C4.12654 12.7733 4.31947 13.2803 4.70535 13.705C5.09123 14.1297 5.55191 14.342 6.08742 14.342H18.1598C18.6323 14.342 19.0458 14.1817 19.4001 13.861C19.7545 13.5403 19.9789 13.146 20.0734 12.678L22.1052 2.902C22.1367 2.694 22.1525 2.52933 22.1525 2.408C22.1525 1.80133 21.9635 1.29 21.5855 0.874001C21.2075 0.458 20.7428 0.25 20.1916 0.25ZM18.1598 12.158H6.08742L6.77254 2.408H20.1916L18.1598 12.158ZM7.90654 19.75C8.4578 19.75 8.92636 19.5377 9.31224 19.113C9.69811 18.6883 9.89105 18.1727 9.89105 17.566C9.89105 16.9593 9.69811 16.448 9.31224 16.032C8.92636 15.616 8.4578 15.408 7.90654 15.408C7.37104 15.408 6.91036 15.616 6.52448 16.032C6.1386 16.448 5.94567 16.9593 5.94567 17.566C5.94567 18.1727 6.1386 18.6883 6.52448 19.113C6.91036 19.5377 7.37104 19.75 7.90654 19.75ZM16.7659 19.75C17.3172 19.75 17.7858 19.5377 18.1716 19.113C18.5575 18.6883 18.7504 18.1727 18.7504 17.566C18.7504 16.9593 18.5575 16.448 18.1716 16.032C17.7858 15.616 17.3172 15.408 16.7659 15.408C16.2304 15.408 15.7698 15.616 15.3839 16.032C14.998 16.448 14.8051 16.9593 14.8051 17.566C14.8051 18.1727 14.998 18.6883 15.3839 19.113C15.7698 19.5377 16.2304 19.75 16.7659 19.75Z" fill="#030712"/>
</svg>
