<svg width="20" height="21" viewBox="0 0 20 21" fill="none" xmlns="http://www.w3.org/2000/svg">
<path d="M20.1561 19.242L16.2437 15.3296C16.9206 14.5372 17.4488 13.6416 17.8285 12.6429C18.2082 11.6442 18.398 10.6083 18.398 9.53529C18.398 7.90101 17.9853 6.38228 17.1599 4.9791C16.3676 3.60894 15.2863 2.51942 13.9161 1.71053C12.513 0.885134 10.986 0.472435 9.33518 0.472435C7.68438 0.472435 6.1574 0.885134 4.75423 1.71053C3.38407 2.50291 2.29454 3.57593 1.48565 4.92958C0.660257 6.34926 0.247559 7.88037 0.247559 9.52291C0.247559 11.1655 0.660257 12.6883 1.48565 14.0915C2.27803 15.4616 3.35105 16.5512 4.7047 17.3601C6.12438 18.202 7.65962 18.6229 9.31042 18.6229C10.3834 18.6229 11.4193 18.4331 12.418 18.0534C13.4168 17.6737 14.3123 17.1455 15.1047 16.4686L19.0171 20.381C19.0666 20.4305 19.1409 20.4759 19.2399 20.5172C19.339 20.5585 19.438 20.5791 19.5371 20.5791C19.6361 20.5791 19.7352 20.5585 19.8342 20.5172C19.9333 20.4759 20.0076 20.4305 20.0571 20.381C20.2552 20.1829 20.3584 19.9848 20.3666 19.7867C20.3749 19.5886 20.3047 19.407 20.1561 19.242ZM1.88184 9.43624C1.88184 8.08259 2.22026 6.82799 2.89708 5.67244C3.5574 4.5664 4.44057 3.68323 5.54661 3.02291C6.70216 2.34609 7.95677 2.00767 9.31042 2.00767C10.6641 2.00767 11.9187 2.35434 13.0742 3.04767C14.1968 3.70799 15.0882 4.60767 15.7485 5.74672C16.4088 6.88577 16.739 8.12386 16.739 9.46101C16.739 10.7981 16.3923 12.0445 15.699 13.2001C15.0387 14.3226 14.139 15.214 12.9999 15.8743C11.8609 16.5347 10.6311 16.8648 9.31042 16.8648C7.97327 16.8978 6.71867 16.5759 5.54661 15.8991C4.44057 15.2553 3.55327 14.3556 2.8847 13.2001C2.21613 12.0445 1.88184 10.7899 1.88184 9.43624Z" fill="black"/>
</svg>
