<svg width="30" height="50" viewBox="0 0 30 50" fill="none" xmlns="http://www.w3.org/2000/svg">
<path d="M28.3785 23.4424L4.39871 0.594204C3.9986 0.212779 3.46702 0 2.91423 0C2.36144 0 1.82986 0.212779 1.42974 0.594204L1.40392 0.620022C1.20928 0.804929 1.0543 1.0275 0.948389 1.2742C0.84248 1.52089 0.787865 1.78655 0.787865 2.05502C0.787865 2.32349 0.84248 2.58916 0.948389 2.83585C1.0543 3.08255 1.20928 3.30512 1.40392 3.49003L23.9853 25.0043L1.40392 46.51C1.20928 46.6949 1.0543 46.9175 0.948389 47.1641C0.84248 47.4108 0.787865 47.6765 0.787865 47.945C0.787865 48.2134 0.84248 48.4791 0.948389 48.7258C1.0543 48.9725 1.20928 49.1951 1.40392 49.38L1.42974 49.4058C1.82986 49.7872 2.36144 50 2.91423 50C3.46702 50 3.9986 49.7872 4.39871 49.4058L28.3785 26.5576C28.5894 26.3567 28.7573 26.115 28.872 25.8473C28.9867 25.5795 29.0459 25.2913 29.0459 25C29.0459 24.7087 28.9867 24.4205 28.872 24.1527C28.7573 23.885 28.5894 23.6433 28.3785 23.4424Z" fill="#D6C698"/>
</svg>
